<svg width="33" height="33" viewBox="0 0 33 33" fill="none" xmlns="http://www.w3.org/2000/svg">
<g id="images-_1_ (1) 1">
<g id="Group">
<path id="Vector" d="M18.88 5.67799C18.726 5.76199 18.054 6.34999 17.396 6.96599C16.276 8.01599 15.856 8.30999 14.022 9.34599C13.518 9.62599 13.35 9.80799 13.35 10.06C13.35 10.424 13.434 10.522 14.372 11.25C15.198 11.894 15.59 12.482 15.59 13.098C15.59 14.414 13.784 14.372 13.322 13.056C13.154 12.552 12.804 12.538 12.272 12.986C11.95 13.266 11.88 13.434 11.88 13.952C11.88 14.638 12.174 15.142 12.846 15.646C13.14 15.884 13.434 15.94 14.162 15.94C15.702 15.926 16.626 15.268 16.976 13.952C17.298 12.748 16.57 11.39 15.03 10.396L14.68 10.172L15.31 9.84999C16.29 9.35999 17.62 8.36599 18.166 7.72199C18.628 7.18999 18.67 7.16199 18.67 7.48399C18.67 10.396 18.026 22.688 17.816 23.78C17.452 25.768 16.36 26.692 14.89 26.244C14.134 26.02 13.868 25.544 13.938 24.578C13.994 23.892 14.064 23.738 14.512 23.346C15.016 22.926 15.016 22.898 14.764 22.674C14.19 22.156 13.154 22.926 12.86 24.102C12.594 25.096 12.804 25.964 13.476 26.636C14.092 27.252 14.82 27.49 16.038 27.49C17.452 27.49 18.306 27.168 19.16 26.314C19.958 25.516 20.364 24.564 20.616 22.87C20.882 21.05 21.106 16.108 21.12 11.67C21.12 7.58199 21.092 7.04999 20.868 6.44799C20.728 6.08399 20.49 5.71999 20.35 5.64999C20 5.46799 19.23 5.48199 18.88 5.67799Z" fill="black"/>
</g>
</g>
</svg>
